# xmcd
#
# Track frame offsets: 
#        150
#        18880
#        37777
#        61377
#        85077
#
# Disc length: 1150 seconds
#
# Revision: 0
# Processed by: cddbd v1.5.2PL0 Copyright (c) Steve Scherf et al.
# Submitted via: ExactAudioCopyFreeDBPlugin 1.0
#
DISCID=2c047c05
DTITLE=Kevon Edmonds - No Love (I'm Not Used To) (Promo CDS)
DYEAR=1999
DGENRE=Funk
TTITLE0=No Love (I'm Not Used To) (Radio Edit)
TTITLE1=No Love (I'm Not Used To) (Guitar Mix)
TTITLE2=No Love (I'm Not Used To) (LP Version)
TTITLE3=No Love (I'm Not Used To) (Instrumental)
TTITLE4=No Love (I'm Not Used To) (Callout Hook)
EXTD=
EXTT0=
EXTT1=
EXTT2=
EXTT3=
EXTT4=
PLAYORDER=
